# xmcd
# 
# Track frame offsets:
#     150
#     17374
#     31265
#     48299
#     64289
#     82998
#     102752
#     117473
#     131875
#     150438
#     163319
#     179014
#     194884
#     210356
#     226663
#     243462
#     261615
#     278992
#     288633
#     305684
# 
# Disc length: 4275
# 
# Revision: 4
# Processed by: cddbd v1.5.2PL0 Copyright (c) Steve Scherf et al.
# Submitted via: BonkEnc v1.0.15
# 
DISCID=2810b114
DTITLE=KEMAL MONTENO - Zlatna kolekcija - CD 1
DYEAR=2007
DGENRE=Zabavni
TTITLE0=Vratio sam se zžvote (Live)
TTITLE1=Olivija
TTITLE2=Pahuljice moja
TTITLE3=Ne budite me nocaš
TTITLE4=Nakon toliko godina
TTITLE5=Zaboravi
TTITLE6=Djevojčice
TTITLE7=Na kraju grada
TTITLE8=Kratak je svaki tren
TTITLE9=Sve sto želim u zivotu
TTITLE10=Tebi je lako
TTITLE11=Hiljade bijelih marama
TTITLE12=Kad nas jednom godine odnesu
TTITLE13=Zvono mog ditinstva
TTITLE14=Dobra večer uzorita
TTITLE15=Vino i gitare
TTITLE16=To je drugo lice ljubavi
TTITLE17=Laž
TTITLE18=Napiši jednu ljubavnu
TTITLE19=Sarajevo ljubavi moja (live)
EXTD=
EXTT0=
EXTT1=
EXTT2=
EXTT3=
EXTT4=
EXTT5=
EXTT6=
EXTT7=
EXTT8=
EXTT9=
EXTT10=
EXTT11=
EXTT12=
EXTT13=
EXTT14=
EXTT15=
EXTT16=
EXTT17=
EXTT18=
EXTT19=
PLAYORDER=
